# xmcd CD database file
#
# Track frame offsets:
#	187
#	17847
#	33810
#	49355
#	63937
#	78805
#	96892
#	117357
#	129345
#	145920
#	164137
#	181662
#
# Disc length: 2649 seconds
#
# Revision: 0
# Processed by: cddbd v1.5.1PL0 Copyright (c) Steve Scherf et al.
# Submitted via: CDex 1.51
#
DISCID=9a0a570c
DTITLE=岩崎宏美 - 二十才前・・・
DYEAR=1994
DGENRE=JPop
TTITLE0=二十才前
TTITLE1=クエッション・マーク
TTITLE2=熱帯魚
TTITLE3=夏のたまり場
TTITLE4=ニッカ・ボッカ
TTITLE5=ザ・マン
TTITLE6=何かが起こりそうな朝
TTITLE7=季節のかほり
TTITLE8=つめたい抱擁
TTITLE9=ヴェニスの花嫁
TTITLE10=暁
TTITLE11=今様つづり
EXTD=YEAR: 1994
EXTT0=
EXTT1=
EXTT2=
EXTT3=
EXTT4=
EXTT5=
EXTT6=
EXTT7=
EXTT8=
EXTT9=
EXTT10=
EXTT11=
PLAYORDER=
